# xmcd
#
# Track frame offsets:
#	150
#	30121
#	55509
#	81281
#	104914
#	135392
#
# Disc length: 2354 seconds
#
# Revision: 1
# Processed by: cddbd v1.5.1PL0 Copyright (c) Steve Scherf et al.
# Submitted via: CDex 1.50Beta5
#
DISCID=41093006
DTITLE=Jo将ェo Gilberto - Live At The 19th Montreux Jazz Festival-2
DYEAR=1900
DGENRE=Jazz
TTITLE0=Adeus America
TTITLE1=Estate
TTITLE2=Morena Boca De Ouro
TTITLE3=A Felicidade
TTITLE4=Sandalia De Prata
TTITLE5=Aquarela Do Brasl
EXTD=
EXTT0=
EXTT1=
EXTT2=
EXTT3=
EXTT4=
EXTT5=
PLAYORDER=
